<mxfile host="Electron" agent="Mozilla/5.0 (Windows NT 10.0; Win64; x64) AppleWebKit/537.36 (KHTML, like Gecko) draw.io/24.7.17 Chrome/128.0.6613.36 Electron/32.0.1 Safari/537.36" version="24.7.17">
  <diagram name="Page-1" id="fYNtGenf-E8qnYv8c1hp">
    <mxGraphModel dx="744" dy="433" grid="1" gridSize="10" guides="1" tooltips="1" connect="1" arrows="0" fold="1" page="1" pageScale="1" pageWidth="850" pageHeight="1100" math="0" shadow="0">
      <root>
        <mxCell id="0" />
        <mxCell id="1" parent="0" />
        <mxCell id="BKGd9JfeeSLJ0HMf673j-61" value="" style="group" vertex="1" connectable="0" parent="1">
          <mxGeometry x="355" y="100" width="140" height="290" as="geometry" />
        </mxCell>
        <mxCell id="BKGd9JfeeSLJ0HMf673j-37" value="ESP32" style="rounded=0;whiteSpace=wrap;snapToPoint=1;points=[[0,0,0,0,0],[0,0.06,0,0,0],[0,0.13,0,0,0],[0,0.19,0,0,0],[0,0.25,0,0,0],[0,0.31,0,0,0],[0,0.38,0,0,0],[0,0.44,0,0,0],[0,0.5,0,0,0],[0,0.56,0,0,0],[0,0.63,0,0,0],[0,0.69,0,0,0],[0,0.75,0,0,0],[0,0.81,0,0,0],[0,0.88,0,0,0],[0,0.94,0,0,0],[0,1,0,0,0],[0.25,0,0,0,0],[0.25,1,0,0,0],[0.5,0,0,0,0],[0.5,1,0,0,0],[0.75,0,0,0,0],[0.75,1,0,0,0],[1,0,0,0,0],[1,0.06,0,0,0],[1,0.13,0,0,0],[1,0.19,0,0,0],[1,0.25,0,0,0],[1,0.31,0,0,0],[1,0.38,0,0,0],[1,0.44,0,0,0],[1,0.5,0,0,0],[1,0.56,0,0,0],[1,0.63,0,0,0],[1,0.69,0,0,0],[1,0.75,0,0,0],[1,0.81,0,0,0],[1,0.88,0,0,0],[1,0.94,0,0,0],[1,1,0,0,0]];labelPosition=center;verticalLabelPosition=middle;align=center;verticalAlign=middle;horizontal=1;fontStyle=1;fontSize=15;labelBorderColor=none;labelBackgroundColor=none;textShadow=0;html=1;fontFamily=Helvetica;shadow=0;glass=0;fillColor=#f5f5f5;fontColor=#333333;strokeColor=#666666;" vertex="1" parent="BKGd9JfeeSLJ0HMf673j-61">
          <mxGeometry width="140" height="290" as="geometry" />
        </mxCell>
        <mxCell id="BKGd9JfeeSLJ0HMf673j-53" value="D23&lt;div style=&quot;font-size: 16px;&quot;&gt;D22&lt;/div&gt;&lt;div style=&quot;font-size: 16px;&quot;&gt;TX0&lt;/div&gt;&lt;div style=&quot;font-size: 16px;&quot;&gt;RX0&lt;/div&gt;&lt;div style=&quot;font-size: 16px;&quot;&gt;D21&lt;/div&gt;&lt;div style=&quot;font-size: 16px;&quot;&gt;D19&lt;/div&gt;&lt;div style=&quot;font-size: 16px;&quot;&gt;D18&lt;/div&gt;&lt;div style=&quot;font-size: 16px;&quot;&gt;D5&lt;/div&gt;&lt;div style=&quot;font-size: 16px;&quot;&gt;TX2&lt;/div&gt;&lt;div style=&quot;font-size: 16px;&quot;&gt;RX2&lt;/div&gt;&lt;div style=&quot;font-size: 16px;&quot;&gt;D4&lt;/div&gt;&lt;div style=&quot;font-size: 16px;&quot;&gt;D2&lt;/div&gt;&lt;div style=&quot;font-size: 16px;&quot;&gt;D15&lt;/div&gt;&lt;div style=&quot;font-size: 16px;&quot;&gt;GND&lt;/div&gt;&lt;div style=&quot;font-size: 16px;&quot;&gt;3V3&lt;/div&gt;" style="text;html=1;align=center;verticalAlign=middle;rounded=0;whiteSpace=wrap;spacing=2;spacingBottom=2;fontSize=16;pointerEvents=1;snapToPoint=1;connectable=1;points=[[0,0,0,0,0],[0,1,0,0,0],[0.25,0,0,0,0],[0.25,1,0,0,0],[0.5,0,0,0,0],[0.5,1,0,0,0],[0.75,0,0,0,0],[0.75,1,0,0,0],[1,0,0,0,0],[1,0.03,0,0,0],[1,0.1,0,0,0],[1,0.16,0,0,0],[1,0.23,0,0,0],[1,0.3,0,0,0],[1,0.36,0,0,0],[1,0.43,0,0,0],[1,0.5,0,0,0],[1,0.56,0,0,0],[1,0.63,0,0,0],[1,0.69,0,0,0],[1,0.76,0,0,0],[1,0.82,0,0,0],[1,0.89,0,0,0],[1,0.96,0,0,0],[1,1,0,0,0]];" vertex="1" parent="BKGd9JfeeSLJ0HMf673j-61">
          <mxGeometry x="100" width="40" height="290" as="geometry" />
        </mxCell>
        <mxCell id="BKGd9JfeeSLJ0HMf673j-52" value="EN&lt;div style=&quot;font-size: 16px;&quot;&gt;VP&lt;/div&gt;&lt;div style=&quot;font-size: 16px;&quot;&gt;VN&lt;/div&gt;&lt;div style=&quot;font-size: 16px;&quot;&gt;D34&lt;/div&gt;&lt;div style=&quot;font-size: 16px;&quot;&gt;D35&lt;/div&gt;&lt;div style=&quot;font-size: 16px;&quot;&gt;D32&lt;/div&gt;&lt;div style=&quot;font-size: 16px;&quot;&gt;D33&lt;/div&gt;&lt;div style=&quot;font-size: 16px;&quot;&gt;D25&lt;/div&gt;&lt;div style=&quot;font-size: 16px;&quot;&gt;D26&lt;/div&gt;&lt;div style=&quot;font-size: 16px;&quot;&gt;D27&lt;/div&gt;&lt;div style=&quot;font-size: 16px;&quot;&gt;D14&lt;/div&gt;&lt;div style=&quot;font-size: 16px;&quot;&gt;D12&lt;/div&gt;&lt;div style=&quot;font-size: 16px;&quot;&gt;D13&lt;/div&gt;&lt;div style=&quot;font-size: 16px;&quot;&gt;GND&lt;/div&gt;&lt;div style=&quot;font-size: 16px;&quot;&gt;VIN&lt;/div&gt;" style="text;html=1;align=center;verticalAlign=middle;whiteSpace=wrap;rounded=0;fontSize=16;movable=1;resizable=1;rotatable=1;deletable=1;editable=1;locked=0;connectable=1;points=[[0,0,0,0,0],[0,0.03,0,0,0],[0,0.1,0,0,0],[0,0.16,0,0,0],[0,0.23,0,0,0],[0,0.3,0,0,0],[0,0.36,0,0,0],[0,0.43,0,0,0],[0,0.5,0,0,0],[0,0.56,0,0,0],[0,0.63,0,0,0],[0,0.69,0,0,0],[0,0.76,0,0,0],[0,0.82,0,0,0],[0,0.89,0,0,0],[0,0.96,0,0,0],[0,1,0,0,0],[0.25,0,0,0,0],[0.25,1,0,0,0],[0.5,0,0,0,0],[0.5,1,0,0,0],[0.75,0,0,0,0],[0.75,1,0,0,0],[1,0,0,0,0],[1,1,0,0,0]];spacingBottom=2;snapToPoint=1;" vertex="1" parent="BKGd9JfeeSLJ0HMf673j-61">
          <mxGeometry width="40" height="290" as="geometry" />
        </mxCell>
        <mxCell id="BKGd9JfeeSLJ0HMf673j-63" value="" style="verticalLabelPosition=bottom;shadow=0;dashed=0;align=center;fillColor=strokeColor;html=1;verticalAlign=top;strokeWidth=1;shape=mxgraph.electrical.miscellaneous.monocell_battery;rotation=-90;" vertex="1" parent="1">
          <mxGeometry x="40" y="270" width="100" height="60" as="geometry" />
        </mxCell>
        <mxCell id="BKGd9JfeeSLJ0HMf673j-64" value="Boost Converter" style="rounded=0;whiteSpace=wrap;html=1;verticalAlign=bottom;labelPosition=center;verticalLabelPosition=top;align=center;" vertex="1" parent="1">
          <mxGeometry x="170" y="155" width="120" height="60" as="geometry" />
        </mxCell>
        <mxCell id="BKGd9JfeeSLJ0HMf673j-66" value="&lt;div style=&quot;&quot;&gt;&lt;span style=&quot;background-color: initial;&quot;&gt;VI&lt;/span&gt;&lt;span style=&quot;background-color: initial; white-space: pre;&quot;&gt;&#x9;&lt;/span&gt;&lt;span style=&quot;background-color: initial;&quot;&gt;&amp;nbsp; GND&lt;/span&gt;&lt;span style=&quot;background-color: initial; white-space: pre;&quot;&gt;&#x9;&lt;/span&gt;&lt;span style=&quot;background-color: initial;&quot;&gt;VO&lt;/span&gt;&lt;/div&gt;" style="text;html=1;align=left;verticalAlign=middle;whiteSpace=wrap;rounded=0;spacingLeft=10;points=[[0,0,0,0,0],[0,0.25,0,0,0],[0,0.5,0,0,0],[0,0.75,0,0,0],[0,1,0,0,0],[0.15,1,0,0,0],[0.25,0,0,0,0],[0.5,0,0,0,0],[0.5,1,0,0,0],[0.75,0,0,0,0],[0.85,1,0,0,0],[1,0,0,0,0],[1,0.25,0,0,0],[1,0.5,0,0,0],[1,0.75,0,0,0],[1,1,0,0,0]];" vertex="1" parent="1">
          <mxGeometry x="170" y="185" width="120" height="30" as="geometry" />
        </mxCell>
        <mxCell id="BKGd9JfeeSLJ0HMf673j-68" style="edgeStyle=orthogonalEdgeStyle;rounded=0;orthogonalLoop=1;jettySize=auto;html=1;exitX=0;exitY=0.5;exitDx=0;exitDy=0;exitPerimeter=0;entryX=0.5;entryY=1;entryDx=0;entryDy=0;entryPerimeter=0;endArrow=none;endFill=0;" edge="1" parent="1" source="BKGd9JfeeSLJ0HMf673j-63" target="BKGd9JfeeSLJ0HMf673j-66">
          <mxGeometry relative="1" as="geometry">
            <Array as="points">
              <mxPoint x="90" y="360" />
              <mxPoint x="230" y="360" />
            </Array>
          </mxGeometry>
        </mxCell>
        <mxCell id="BKGd9JfeeSLJ0HMf673j-70" style="edgeStyle=orthogonalEdgeStyle;rounded=0;orthogonalLoop=1;jettySize=auto;html=1;exitX=1;exitY=0.5;exitDx=0;exitDy=0;exitPerimeter=0;entryX=0.15;entryY=1;entryDx=0;entryDy=0;entryPerimeter=0;endArrow=none;endFill=0;" edge="1" parent="1" source="BKGd9JfeeSLJ0HMf673j-63" target="BKGd9JfeeSLJ0HMf673j-66">
          <mxGeometry relative="1" as="geometry">
            <Array as="points">
              <mxPoint x="90" y="240" />
              <mxPoint x="188" y="240" />
            </Array>
          </mxGeometry>
        </mxCell>
        <mxCell id="BKGd9JfeeSLJ0HMf673j-71" style="edgeStyle=orthogonalEdgeStyle;rounded=0;orthogonalLoop=1;jettySize=auto;html=1;exitX=0;exitY=0.96;exitDx=0;exitDy=0;exitPerimeter=0;entryX=0.85;entryY=1;entryDx=0;entryDy=0;entryPerimeter=0;endArrow=none;endFill=0;" edge="1" parent="1" source="BKGd9JfeeSLJ0HMf673j-52" target="BKGd9JfeeSLJ0HMf673j-66">
          <mxGeometry relative="1" as="geometry" />
        </mxCell>
        <mxCell id="BKGd9JfeeSLJ0HMf673j-72" value="" style="endArrow=none;html=1;rounded=0;entryX=0;entryY=0.89;entryDx=0;entryDy=0;entryPerimeter=0;startArrow=oval;startFill=1;edgeStyle=orthogonalEdgeStyle;" edge="1" parent="1" target="BKGd9JfeeSLJ0HMf673j-52">
          <mxGeometry width="50" height="50" relative="1" as="geometry">
            <mxPoint x="230" y="360" as="sourcePoint" />
            <mxPoint x="320" y="250" as="targetPoint" />
            <Array as="points">
              <mxPoint x="230" y="361" />
              <mxPoint x="350" y="361" />
              <mxPoint x="350" y="358" />
            </Array>
          </mxGeometry>
        </mxCell>
      </root>
    </mxGraphModel>
  </diagram>
</mxfile>
